<svg width="16" height="17" viewBox="0 0 16 17" fill="none" xmlns="http://www.w3.org/2000/svg">
<path fill-rule="evenodd" clip-rule="evenodd" d="M2.00065 9.83398C2.36884 9.83398 2.66732 10.1325 2.66732 10.5007V13.1673C2.66732 13.3441 2.73756 13.5137 2.86258 13.6387C2.9876 13.7637 3.15717 13.834 3.33398 13.834H12.6673C12.8441 13.834 13.0137 13.7637 13.1387 13.6387C13.2637 13.5137 13.334 13.3441 13.334 13.1673V10.5007C13.334 10.1325 13.6325 9.83398 14.0007 9.83398C14.3688 9.83398 14.6673 10.1325 14.6673 10.5007V13.1673C14.6673 13.6978 14.4566 14.2065 14.0815 14.5815C13.7065 14.9566 13.1978 15.1673 12.6673 15.1673H3.33398C2.80355 15.1673 2.29484 14.9566 1.91977 14.5815C1.5447 14.2065 1.33398 13.6978 1.33398 13.1673V10.5007C1.33398 10.1325 1.63246 9.83398 2.00065 9.83398Z" fill="#71839B"/>
<path fill-rule="evenodd" clip-rule="evenodd" d="M4.19526 6.69526C4.45561 6.43491 4.87772 6.43491 5.13807 6.69526L8 9.55719L10.8619 6.69526C11.1223 6.43491 11.5444 6.43491 11.8047 6.69526C12.0651 6.95561 12.0651 7.37772 11.8047 7.63807L8.4714 10.9714C8.21106 11.2318 7.78894 11.2318 7.5286 10.9714L4.19526 7.63807C3.93491 7.37772 3.93491 6.95561 4.19526 6.69526Z" fill="#71839B"/>
<path fill-rule="evenodd" clip-rule="evenodd" d="M8.00065 1.83398C8.36884 1.83398 8.66732 2.13246 8.66732 2.50065V10.5007C8.66732 10.8688 8.36884 11.1673 8.00065 11.1673C7.63246 11.1673 7.33398 10.8688 7.33398 10.5007V2.50065C7.33398 2.13246 7.63246 1.83398 8.00065 1.83398Z" fill="#71839B"/>
</svg>
