<svg width="26" height="29" viewBox="0 0 26 29" fill="none" xmlns="http://www.w3.org/2000/svg">
<g clip-path="url(#clip0_1995_6381)">
<path fill-rule="evenodd" clip-rule="evenodd" d="M2.33203 0.5C1.77975 0.5 1.33203 0.947715 1.33203 1.5V27.5C1.33203 28.0523 1.77975 28.5 2.33203 28.5H23.6654C24.2176 28.5 24.6654 28.0523 24.6654 27.5V5.16667L19.9987 0.5H2.33203Z" fill="#E9F0FA"/>
<path fill-rule="evenodd" clip-rule="evenodd" d="M19.998 0.5V5.16667H24.6647L19.998 0.5Z" fill="#C2CDDE"/>
</g>
<rect x="0.166016" y="12.166" width="25.6667" height="11.6667" rx="1" fill="#F14848"/>
<path d="M5.75746 21V15.1818H7.93928C8.38625 15.1818 8.76125 15.2652 9.06428 15.4318C9.3692 15.5985 9.59931 15.8277 9.75462 16.1193C9.91181 16.4091 9.99041 16.7386 9.99041 17.108C9.99041 17.4811 9.91181 17.8125 9.75462 18.1023C9.59742 18.392 9.36541 18.6203 9.05859 18.7869C8.75178 18.9517 8.37393 19.0341 7.92507 19.0341H6.47905V18.1676H7.78303C8.04439 18.1676 8.2584 18.1222 8.42507 18.0312C8.59174 17.9403 8.71484 17.8153 8.79439 17.6562C8.87583 17.4972 8.91655 17.3144 8.91655 17.108C8.91655 16.9015 8.87583 16.7197 8.79439 16.5625C8.71484 16.4053 8.59079 16.2831 8.42223 16.196C8.25556 16.107 8.0406 16.0625 7.77734 16.0625H6.81143V21H5.75746ZM12.8775 21H10.9059V15.1818H12.9173C13.4949 15.1818 13.9911 15.2983 14.4059 15.5312C14.8226 15.7623 15.1426 16.0947 15.3661 16.5284C15.5896 16.9621 15.7013 17.4811 15.7013 18.0852C15.7013 18.6913 15.5887 19.2121 15.3633 19.6477C15.1398 20.0833 14.8169 20.4176 14.3945 20.6506C13.9741 20.8835 13.4684 21 12.8775 21ZM11.9599 20.0881H12.8263C13.2317 20.0881 13.5697 20.0142 13.8406 19.8665C14.1114 19.7169 14.315 19.4943 14.4513 19.1989C14.5877 18.9015 14.6559 18.5303 14.6559 18.0852C14.6559 17.6402 14.5877 17.2708 14.4513 16.9773C14.315 16.6818 14.1133 16.4612 13.8462 16.3153C13.5811 16.1676 13.2515 16.0938 12.8576 16.0938H11.9599V20.0881ZM16.7028 21V15.1818H20.43V16.0653H17.7567V17.6449H20.1744V18.5284H17.7567V21H16.7028Z" fill="white"/>
<defs>
<clipPath id="clip0_1995_6381">
<rect width="23.3333" height="28" fill="white" transform="translate(1.33203 0.5)"/>
</clipPath>
</defs>
</svg>
