<svg width="59" height="60" viewBox="0 0 59 60" fill="none" xmlns="http://www.w3.org/2000/svg">
<path d="M14.6785 46.8043L26.243 22.0352H22.5844L10.7676 47.0146C11.4825 47.9397 13.7954 46.0053 14.6785 46.8043Z" fill="white"/>
<path d="M20.9865 21.6172H17.3279L7.36133 42.6016C8.03417 43.6949 8.70702 44.9565 9.50603 45.9658L20.9865 21.6172Z" fill="white"/>
<path d="M32.254 36.6691L20.9418 21.6562H17.2832L28.5954 36.6691H32.254Z" fill="white"/>
<path d="M32.3363 36.7562H28.5515L17.1973 21.6172H20.982L32.3363 36.7562ZM28.5936 36.6301H32.126L20.8979 21.7013H17.3655L28.5936 36.6301Z" fill="white"/>
<path d="M17.1988 52.8592L12.7832 54.0367L28.0484 21.8242H31.707L17.1988 52.8592Z" fill="white"/>
<path d="M12.6562 54.1581L28.0476 21.7773H31.8324L31.7903 21.8614L17.24 52.8965L12.6562 54.1581ZM28.0897 21.8614L12.8665 53.9478L17.1559 52.7703L31.6221 21.8614H28.0897Z" fill="white"/>
<path d="M37.4689 36.9269L26.1987 21.9141H22.498L33.8103 36.9269H37.4689Z" fill="white"/>
<path d="M37.5961 37.0053H33.8113V36.9633L22.457 21.8242H26.2418V21.8663L37.5961 37.0053ZM33.8534 36.8791H37.3858L26.1577 21.9504H22.6252L33.8534 36.8791Z" fill="white"/>
<path d="M41.2525 17.6609L46.8455 5.67578H43.1869L28.7207 36.6688H32.3793L40.4114 19.343L41.2525 17.6609Z" fill="white"/>
<path d="M32.4234 36.7099H28.6387L28.6807 36.6258L43.1469 5.63281H46.9317L46.8896 5.71692L41.2966 17.702L40.4976 19.3841L32.4234 36.7099ZM28.8069 36.5837H32.3393L40.3714 19.3L41.1704 17.6179L46.7214 5.71692H43.189L28.8069 36.5837Z" fill="white"/>
<path d="M42.9806 36.926L31.6684 21.8711H28.0098L39.322 36.926H42.9806Z" fill="white"/>
<path d="M43.1421 36.9584H39.3153L39.2733 36.9164L27.877 21.7773H31.7038L31.7458 21.8194L43.1421 36.9584ZM39.3574 36.8323H42.8478L31.6617 21.9456H28.1713L39.3574 36.8323Z" fill="white"/>
<path d="M29.5211 0C13.2046 0 0 13.2046 0 29.5211C0 35.9132 2.01854 41.8006 5.46687 46.6366C6.18177 47.6459 6.93873 48.6131 7.77978 49.4962L7.82184 49.5383L9.58806 45.7115L9.546 45.6694C8.747 44.6602 8.0321 43.6509 7.35925 42.5155C5.0884 38.6886 3.82681 34.231 3.82681 29.4791C3.82681 15.3072 15.3072 3.78476 29.5211 3.78476C35.3665 3.78476 40.7072 5.67714 44.9966 8.99932L46.8469 5.55098C42.0108 2.10265 35.9552 0 29.5211 0Z" fill="white"/>
<mask id="mask0_1991_8245" style="mask-type:luminance" maskUnits="userSpaceOnUse" x="51" y="10" width="3" height="3">
<path d="M51.7227 10.6016C52.3114 11.3165 52.9842 12.1575 53.5309 12.9565C52.9842 12.1155 52.3534 11.3585 51.7227 10.6016Z" fill="white"/>
</mask>
<g mask="url(#mask0_1991_8245)">
<path d="M54.4594 11.0182L53.1978 13.6676L50.8008 12.4901L52.0624 9.88281L54.4594 11.0182Z" fill="white"/>
</g>
<mask id="mask1_1991_8245" style="mask-type:luminance" maskUnits="userSpaceOnUse" x="51" y="17" width="1" height="1">
<path d="M51.7656 17.4688C51.8077 17.5529 51.8497 17.5949 51.8918 17.679C51.8497 17.5949 51.8077 17.5108 51.7656 17.4688Z" fill="white"/>
</mask>
<g mask="url(#mask1_1991_8245)">
<path d="M51.9359 17.5021L51.8518 17.7123L51.6836 17.6282L51.7677 17.418L51.9359 17.5021Z" fill="white"/>
</g>
<path d="M53.954 13.4076C53.8699 13.2394 53.7437 13.1133 53.6596 12.945C53.1129 12.146 52.4401 11.305 51.8514 10.5901C51.8093 10.548 51.7673 10.4639 51.7252 10.4219L51.1365 11.7255L49.8749 14.501C50.4636 15.3 51.3888 16.5616 51.8934 17.4868C51.9355 17.5709 51.9775 17.6129 52.0196 17.697C54.0381 21.3556 55.1735 25.5609 55.1735 29.9765C55.1735 44.1483 43.6931 55.6708 29.4792 55.6708C23.8862 55.6708 18.7137 53.8625 14.4664 50.8347L12.7422 54.3251C17.4942 57.6052 23.2975 59.4976 29.4792 59.4976C45.7957 59.4976 59.0004 46.293 59.0004 29.9765C58.9162 23.9208 57.0659 18.1596 53.954 13.4076Z" fill="white"/>
<path d="M44.7012 21.6597L45.374 20.2719L47.1403 16.3189C46.4254 15.3517 45.8366 14.006 44.9535 13.207L42.5986 18.3375L41.8416 19.9355L33.8516 37.009H37.5102L44.7012 21.6597Z" fill="white"/>
<path d="M37.5973 37.0101H33.8125L42.5595 18.2966L44.9145 13.082L44.9565 13.1241C45.5032 13.6708 45.9658 14.3857 46.3863 15.0585C46.6386 15.479 46.8909 15.8996 47.1433 16.236V16.278V16.3201L45.377 20.2731L37.5973 37.0101ZM34.0228 36.884H37.5552L45.335 20.231L47.1012 16.278C46.8489 15.8996 46.5966 15.5211 46.3443 15.1006C45.9237 14.4277 45.5032 13.7549 44.9986 13.2082L42.6857 18.2966L41.9287 19.8946L34.0228 36.884Z" fill="white"/>
<path d="M48.4843 13.5779C47.7274 12.6947 46.8863 11.8537 46.0032 11.0547L45.3303 12.4845L44.5313 14.1666C45.4144 15.0077 46.2134 15.8908 46.9283 16.9C49.6618 20.5586 51.2598 25.0583 51.2598 29.9785C51.2598 42.0477 41.4615 51.888 29.3502 51.888C23.8413 51.888 18.795 49.8274 14.9261 46.4632C14.043 45.6642 13.2019 44.8231 12.445 43.94L10.9731 46.6314C10.9731 46.6735 10.6367 47.052 10.6367 47.094C11.4357 47.9351 12.5291 48.8182 13.4543 49.5331C17.7857 53.0655 23.2946 55.1682 29.3082 55.1682C43.1856 55.1682 54.4558 43.898 54.4558 30.0205C54.5399 23.6706 52.2691 17.9514 48.4843 13.5779Z" fill="white"/>
<path d="M52.0173 17.1147C51.4706 16.1895 50.5454 14.9279 49.9988 14.1289V14.171L46.8448 20.8153L46.1719 22.2451L39.3594 36.8375H43.018L52.1435 17.2829C52.1014 17.2408 52.0593 17.1567 52.0173 17.1147Z" fill="white"/>
<path d="M41.9298 18.207L38.4395 20.7302L40.5842 21.1507L42.056 22.3703L41.9298 18.207Z" fill="white"/>
<path d="M46.2149 20.3125L42.8086 22.7095L44.9112 23.1721L46.2569 24.5598L46.2149 20.3125Z" fill="white"/>
<path d="M40.7497 33.5078L38.9414 37.5869" stroke="white" stroke-width="0.160798" stroke-miterlimit="10"/>
</svg>
